<svg width="223" height="88" viewBox="0 0 223 88" fill="none" xmlns="http://www.w3.org/2000/svg">
<path d="M4.12709 -14.0789C13.0302 -24.311 39.0502 -30.8406 53.8954 -38.067C68.7954 -45.4366 72.7266 -53.6203 81.0249 -63.9562C89.2202 -74.2335 101.879 -86.4936 118.059 -92.5743C134.088 -98.681 153.584 -98.4649 162.999 -89.3644C172.366 -80.3486 171.701 -62.3637 173.405 -45.7285C175.108 -29.0934 179.132 -13.8927 174.276 0.0887839C169.268 14.0443 155.332 26.6961 140.009 27.5783C124.686 28.4605 108.08 17.5145 92.1746 19.2894C76.1662 21.1231 60.9616 35.619 47.6075 38.5193C34.1986 41.5629 22.7978 32.8088 12.9874 21.5785C3.23167 10.2049 -4.82429 -3.93151 4.12709 -14.0789Z" fill="#E8912B"/>
<path d="M148.959 -31.6559C161.69 -31.2681 181.292 -17.9382 195.112 -12.1598C209.071 -6.42099 217.453 -8.16255 229.921 -8.21808C242.286 -8.30924 258.664 -6.56398 272.375 0.670901C286.02 7.79496 296.858 20.4482 295.317 31.2533C293.813 41.9831 279.891 50.94 268.323 60.7161C256.755 70.4922 247.577 81.0124 234.306 85.1841C220.969 89.2451 203.575 86.8824 194.264 77.4865C184.952 68.0905 183.826 51.6969 173.513 42.392C163.098 33.0515 143.6 30.8353 133.88 23.7587C124.02 16.7217 124.18 4.82029 127.103 -7.35026C130.164 -19.5604 136.265 -32.1188 148.959 -31.6559Z" fill="#59370F"/>
</svg>
