<svg width="223" height="88" viewBox="0 0 223 88" fill="none" xmlns="http://www.w3.org/2000/svg">
<path d="M22.0504 23.6958C9.00813 18.2579 -6.75393 4.64115 4.57971 -8.52119C15.7586 -21.7138 28.7066 -29.9456 44.6858 -34.8919C60.5103 -39.8686 79.211 -41.5903 99.2084 -39.0204C119.027 -36.3894 139.832 -29.5275 159.449 -17.6107C179.067 -5.69386 197.342 11.2476 195.229 25.2541C193.116 39.2607 170.664 50.1496 148.24 48.7388C125.815 47.3279 103.623 33.4649 74.56 30.0811C45.6516 26.7276 35.0683 29.2251 22.0504 23.6958Z" fill="#E8912B"/>
<path d="M148.959 -31.6559C161.69 -31.2681 181.292 -17.9382 195.112 -12.1598C209.071 -6.42099 217.453 -8.16255 229.921 -8.21808C242.286 -8.30924 258.664 -6.56398 272.375 0.670901C286.02 7.79496 296.858 20.4482 295.317 31.2533C293.813 41.9831 279.891 50.94 268.323 60.7161C256.755 70.4922 247.577 81.0124 234.306 85.1841C220.969 89.2451 203.575 86.8824 194.264 77.4865C184.952 68.0905 183.826 51.6969 173.513 42.392C163.098 33.0515 143.6 30.8353 133.88 23.7587C124.02 16.7217 124.18 4.82029 127.103 -7.35026C130.164 -19.5604 136.265 -32.1188 148.959 -31.6559Z" fill="#59370F"/>
</svg>
