<svg width="124" height="109" viewBox="0 0 124 109" fill="none" xmlns="http://www.w3.org/2000/svg">
<path d="M55.1939 15.1648C58.6366 25.4929 55.1217 35.9173 47.3455 38.4693C39.5694 41.0212 30.4691 34.7136 27.0264 24.3855C23.5837 14.0574 27.0986 3.63302 34.8748 1.08109C42.6509 -1.47084 51.7512 4.83676 55.1939 15.1648ZM24.8356 40.6119C29.3857 48.4122 28.2783 57.4884 22.38 60.8588C16.4816 64.2293 8.0073 60.6422 3.48124 52.8419C-1.04482 45.0417 0.0144668 35.9655 5.91279 32.595C11.8111 29.2245 20.2855 32.8117 24.8115 40.6119H24.8356ZM17.3242 89.3875C29.9394 55.3698 52.3531 46.7269 62.296 46.7269C72.2389 46.7269 94.6525 55.3698 107.268 89.3875C108.134 91.7227 108.52 94.2265 108.52 96.7303V97.1155C108.52 103.327 103.488 108.358 97.2767 108.358C94.5081 108.358 91.7635 108.021 89.0912 107.347L67.9054 102.051C64.222 101.136 60.37 101.136 56.6866 102.051L35.5007 107.347C32.8284 108.021 30.0839 108.358 27.3153 108.358C21.104 108.358 16.0724 103.327 16.0724 97.1155V96.7303C16.0724 94.2265 16.4576 91.7227 17.3242 89.3875ZM102.212 60.8588C96.3137 57.4884 95.2062 48.4122 99.7564 40.6119C104.307 32.8117 112.757 29.2245 118.655 32.595C124.553 35.9655 125.661 45.0417 121.111 52.8419C116.561 60.6422 108.11 64.2293 102.212 60.8588ZM75.3204 38.4693C67.5443 35.9173 64.0294 25.4929 67.4721 15.1648C70.9148 4.83676 80.015 -1.47084 87.7912 1.08109C95.5674 3.63302 99.0823 14.0574 95.6396 24.3855C92.1969 34.7136 83.0966 41.0212 75.3204 38.4693Z" fill="#E8912B"/>
</svg>
