<svg width="56" height="55" viewBox="0 0 56 55" fill="none" xmlns="http://www.w3.org/2000/svg">
<g clip-path="url(#clip0_90_129)">
<path d="M24.7249 9.97942C26.261 14.5878 24.6926 19.2392 21.2229 20.3779C17.7532 21.5165 13.6926 18.7021 12.1565 14.0937C10.6204 9.48528 12.1887 4.83391 15.6584 3.69524C19.1282 2.55656 23.1887 5.37102 24.7249 9.97942ZM11.179 21.3339C13.2092 24.8144 12.7151 28.8642 10.0833 30.3681C7.45142 31.872 3.67017 30.2714 1.65064 26.7909C-0.368896 23.3105 0.10376 19.2607 2.7356 17.7568C5.36743 16.2529 9.14868 17.8534 11.1682 21.3339H11.179ZM7.82739 43.0976C13.4563 27.9189 23.4573 24.0624 27.8938 24.0624C32.3303 24.0624 42.3313 27.9189 47.9602 43.0976C48.3469 44.1396 48.5188 45.2568 48.5188 46.3739V46.5458C48.5188 49.3173 46.2737 51.5624 43.5022 51.5624C42.2668 51.5624 41.0422 51.412 39.8499 51.1112L30.3967 48.748C28.7532 48.3398 27.0344 48.3398 25.3909 48.748L15.9377 51.1112C14.7454 51.412 13.5208 51.5624 12.2854 51.5624C9.51392 51.5624 7.2688 49.3173 7.2688 46.5458V46.3739C7.2688 45.2568 7.44067 44.1396 7.82739 43.0976ZM45.7043 30.3681C43.0725 28.8642 42.5784 24.8144 44.6086 21.3339C46.6389 17.8534 50.4094 16.2529 53.0413 17.7568C55.6731 19.2607 56.1672 23.3105 54.137 26.7909C52.1067 30.2714 48.3362 31.872 45.7043 30.3681ZM33.7053 20.3779C30.2356 19.2392 28.6672 14.5878 30.2034 9.97942C31.7395 5.37102 35.8 2.55656 39.2698 3.69524C42.7395 4.83391 44.3079 9.48528 42.7717 14.0937C41.2356 18.7021 37.175 21.5165 33.7053 20.3779Z" fill="#59370F"/>
</g>
<defs>
<clipPath id="clip0_90_129">
<rect width="55" height="55" fill="white" transform="translate(0.393799)"/>
</clipPath>
</defs>
</svg>
